<?xml version="1.0" encoding="UTF-8" standalone="no"?>
<svg width="21px" height="28px" viewBox="0 0 21 28" version="1.1" xmlns="http://www.w3.org/2000/svg" xmlns:xlink="http://www.w3.org/1999/xlink" xmlns:sketch="http://www.bohemiancoding.com/sketch/ns">
    <!-- Generator: Sketch 3.3.3 (12072) - http://www.bohemiancoding.com/sketch -->
    <title>Fill 91</title>
    <desc>Created with Sketch.</desc>
    <defs></defs>
    <g id="Page-1" stroke="none" stroke-width="1" fill="none" fill-rule="evenodd" sketch:type="MSPage">
        <g id="Desktop-HD" sketch:type="MSArtboardGroup" transform="translate(-1260.000000, -24.000000)" stroke="#44B6FF" stroke-width="0.5" fill="#44B6FF">
            <path d="M1270.02923,38.1746291 C1273.72535,38.1746291 1276.73186,35.1681143 1276.73186,31.4739055 C1276.73186,27.7790604 1273.72535,24.7725457 1270.02923,24.7725457 C1266.33502,24.7725457 1263.32914,27.7790604 1263.32914,31.4739055 C1263.32914,35.1681143 1266.33502,38.1746291 1270.02923,38.1746291 L1270.02923,38.1746291 Z M1270.02923,25.7267929 C1273.19924,25.7267929 1275.77762,28.3051687 1275.77762,31.4739055 C1275.77762,34.6420061 1273.19924,37.2203819 1270.02923,37.2203819 C1266.86113,37.2203819 1264.28339,34.6420061 1264.28339,31.4739055 C1264.28339,28.3051687 1266.86113,25.7267929 1270.02923,25.7267929 L1270.02923,25.7267929 Z M1279.98775,50.4157117 C1279.56661,48.5803763 1278.07417,43.1303527 1276.96343,41.6843502 C1275.22288,38.7847111 1271.5662,39.1498697 1271.46251,39.1632291 L1268.48081,39.1632291 C1268.35739,39.1657738 1265.40749,39.0837085 1263.6784,41.567932 C1262.71779,42.9490457 1261.30996,48.2234879 1260.81566,50.4176202 C1260.75713,50.6746308 1260.91871,50.9297329 1261.17573,50.9876239 C1261.43337,51.0474234 1261.68847,50.8845652 1261.74573,50.6275546 C1262.26611,48.3227296 1263.64023,43.2944832 1264.46215,42.1124891 C1265.88653,40.0653108 1268.42546,40.1187486 1268.46426,40.1174763 L1271.5134,40.1149317 C1271.54648,40.1092062 1274.7413,39.8044832 1276.15804,42.197099 C1276.16949,42.2155477 1276.18158,42.2339965 1276.19494,42.2505368 C1277.06458,43.3485572 1278.52076,48.2883767 1279.05768,50.6294631 C1279.10794,50.8502123 1279.30515,50.999711 1279.52208,50.999711 C1279.55771,50.999711 1279.59333,50.995894 1279.62896,50.9876239 C1279.88597,50.9290967 1280.04692,50.6727223 1279.98775,50.4157117 L1279.98775,50.4157117 Z" id="Fill-91" sketch:type="MSShapeGroup"></path>
        </g>
    </g>
</svg>