<?xml version="1.0" encoding="UTF-8" standalone="no"?>
<svg width="49px" height="43px" viewBox="0 0 49 43" version="1.1" xmlns="http://www.w3.org/2000/svg" xmlns:xlink="http://www.w3.org/1999/xlink" xmlns:sketch="http://www.bohemiancoding.com/sketch/ns">
    <!-- Generator: Sketch 3.3.3 (12072) - http://www.bohemiancoding.com/sketch -->
    <title>box</title>
    <desc>Created with Sketch.</desc>
    <defs></defs>
    <g id="Page-1" stroke="none" stroke-width="1" fill="none" fill-rule="evenodd" sketch:type="MSPage">
        <g id="Desktop-HD" sketch:type="MSArtboardGroup" transform="translate(-481.000000, -502.000000)" fill="#546979">
            <g id="box" sketch:type="MSLayerGroup" transform="translate(481.000000, 502.000000)">
                <path d="M47.9995919,12.1374204 C47.9894897,12.0730186 47.9995919,12.0073539 47.9768618,11.9454776 L43.8425148,1.28507526 C43.6998205,0.921394154 43.35003,0.681465648 42.9598305,0.681465648 L5.08143321,0.681465648 C4.68870813,0.681465648 4.3401804,0.921394154 4.19748608,1.28507526 L0.0644018623,11.9454776 C0.0404090116,12.0073539 0.0505112645,12.0730186 0.0404090116,12.1374204 C0.0252556323,12.2018223 0,12.2636986 0,12.3318888 L0,41.1864487 C0,41.7092403 0.424294622,42.1335349 0.94708621,42.1335349 L47.0929147,42.1335349 C47.6157063,42.1335349 48.0400009,41.7092403 48.0400009,41.1864487 L48.0400009,12.3318888 C48.0400009,12.2636986 48.0134825,12.2018223 47.9995919,12.1374204 L47.9995919,12.1374204 Z M26.8833578,2.57563807 L29.2662267,12.2813775 L29.2662267,23.2322197 L24.447452,20.8203068 C24.1810051,20.6877147 23.8678353,20.6877147 23.5976,20.8203068 L18.7762998,23.2322197 L18.7762998,12.2245524 L21.1541176,2.57563807 L26.8833578,2.57563807 L26.8833578,2.57563807 Z M46.1458285,40.2393625 L1.89290964,40.2393625 L1.89290964,13.278975 L14.9538599,13.278975 C15.4766515,13.278975 15.9009461,12.8546804 15.9009461,12.3318888 C15.9009461,12.3255749 15.8958949,12.3179982 15.8958949,12.3104215 C15.8958949,12.3028448 15.9009461,12.2952681 15.9009461,12.2876915 C15.9009461,11.7648999 15.4766515,11.3406052 14.9538599,11.3406052 L2.33109486,11.3406052 L5.72924018,2.57563807 L19.2005944,2.57563807 L16.9099086,11.8836013 C16.8897041,11.9568427 16.8821274,12.0338724 16.8821274,12.110902 L16.8821274,24.7652366 C16.8821274,25.0935598 17.0526029,25.3978902 17.3316776,25.5708912 C17.6107524,25.7438923 17.9567545,25.7577829 18.2535082,25.612563 L24.0231574,22.7271071 L29.7890183,25.612563 C29.9228731,25.6794905 30.068093,25.7123228 30.2133129,25.7123228 C30.386314,25.7123228 30.5580523,25.6655999 30.7108488,25.5708912 C30.9886608,25.3978902 31.1603991,25.0935598 31.1603991,24.7652366 L31.1603991,12.1664644 C31.1603991,12.0906975 31.1515596,12.0149306 31.1338807,11.9416893 L28.8343554,2.57563807 L42.3107607,2.57563807 L45.7101688,11.3406052 L33.0886666,11.3406052 C32.565875,11.3406052 32.1428432,11.7648999 32.1428432,12.2876915 C32.1428432,12.2952681 32.1453687,12.3028448 32.1466315,12.3104215 C32.1453687,12.3179982 32.1428432,12.3255749 32.1428432,12.3318888 C32.1428432,12.8546804 32.565875,13.278975 33.0886666,13.278975 L46.1458285,13.278975 L46.1458285,40.2393625 L46.1458285,40.2393625 Z" id="Fill-45" sketch:type="MSShapeGroup"></path>
            </g>
        </g>
    </g>
</svg>