<?xml version="1.0" encoding="UTF-8" standalone="no"?>
<svg width="19px" height="32px" viewBox="0 0 19 32" version="1.1" xmlns="http://www.w3.org/2000/svg" xmlns:xlink="http://www.w3.org/1999/xlink" xmlns:sketch="http://www.bohemiancoding.com/sketch/ns">
    <!-- Generator: Sketch 3.4 (15575) - http://www.bohemiancoding.com/sketch -->
    <title>cashout</title>
    <desc>Created with Sketch.</desc>
    <defs></defs>
    <g id="Page-1" stroke="none" stroke-width="1" fill="none" fill-rule="evenodd" sketch:type="MSPage">
        <g id="Desktop-HD" sketch:type="MSArtboardGroup" transform="translate(-813.000000, -12.000000)" stroke="#546979" stroke-width="0.25" fill="#546979">
            <path d="M823.206823,13.1487782 C823.206823,12.8744046 822.987301,12.6519808 822.710867,12.6519808 L822.832843,12.6519808 C822.558934,12.6519808 822.336887,12.8683468 822.336887,13.1487782 L822.336887,15.6605096 C820.065387,15.7088392 818.186567,16.2706729 816.700426,17.3460107 C815.214286,18.4213484 814.471215,19.8531182 814.471215,21.6413198 C814.471215,24.2511279 816.295664,26.0755769 819.944563,27.1146674 L822.336887,27.7671194 L822.336887,39.1125352 C819.243781,39.0642056 816.609808,38.3030116 814.434968,36.8289531 L814,37.5538998 C816.392324,39.1246174 819.171287,39.9341416 822.336887,39.9824712 L822.336887,42.4942027 C822.336887,42.7685763 822.556409,42.991 822.832843,42.991 L822.710867,42.991 C822.984776,42.991 823.206823,42.774634 823.206823,42.4942027 L823.206823,39.9824712 C825.574982,39.861647 827.465885,39.1971121 828.879531,37.9888678 C830.293177,36.7806235 831,35.3548946 831,33.7116823 C831,32.1892942 830.420043,30.9085553 829.260128,29.8694648 C828.100213,28.8303744 826.698649,28.0812632 825.055437,27.6221301 L823.206823,27.1146674 L823.206823,16.566693 C826.179104,16.7116823 828.462687,17.327887 830.057569,18.415307 L830.492537,17.6903603 C829.646766,17.1345681 828.547263,16.6693936 827.19403,16.294838 C825.840796,15.9202823 824.511727,15.7088392 823.206823,15.6605096 L823.206823,13.1487782 Z M822.336887,26.860936 C820.307036,26.2568136 818.778607,25.6708154 817.751599,25.1029403 C816.724592,24.5350652 816.084222,24.0094788 815.83049,23.5261812 C815.576759,23.0428836 815.449893,22.4025139 815.449893,21.6050725 C815.449893,20.0826844 816.102345,18.8683987 817.407249,17.9622154 C818.712154,17.056032 820.355366,16.5787752 822.336887,16.5304456 L822.336887,26.860936 Z M823.206823,28.0570981 C825.550818,28.7095501 827.272566,29.4344968 828.372068,30.2319382 C829.471571,31.0293795 830.021322,32.1892942 830.021322,33.7116823 C830.021322,35.1374106 829.405117,36.3637791 828.172708,37.3907868 C826.940299,38.4177944 825.285003,38.9917109 823.206823,39.1125352 L823.206823,28.0570981 Z" id="cashout" sketch:type="MSShapeGroup"></path>
        </g>
    </g>
</svg>