<?xml version="1.0" encoding="UTF-8" standalone="no"?>
<svg width="72px" height="42px" viewBox="0 0 72 42" version="1.1" xmlns="http://www.w3.org/2000/svg" xmlns:xlink="http://www.w3.org/1999/xlink" xmlns:sketch="http://www.bohemiancoding.com/sketch/ns">
    <!-- Generator: Sketch 3.3.3 (12072) - http://www.bohemiancoding.com/sketch -->
    <title>inspected</title>
    <desc>Created with Sketch.</desc>
    <defs></defs>
    <g id="Page-1" stroke="none" stroke-width="1" fill="none" fill-rule="evenodd" sketch:type="MSPage">
        <g id="Desktop-HD" sketch:type="MSArtboardGroup" transform="translate(-684.000000, -502.000000)" fill="#546979">
            <g id="inspected" sketch:type="MSLayerGroup" transform="translate(684.000000, 502.000000)">
                <path d="M9.25733448,32.7936119 C9.80220567,32.7936119 10.24442,32.3513976 10.24442,31.8065264 L10.24442,1.97417096 L61.5899744,1.97417096 L61.5899744,31.8065264 C61.5899744,32.3513976 62.0321887,32.7936119 62.5770599,32.7936119 C63.121931,32.7936119 63.5641453,32.3513976 63.5641453,31.8065264 L63.5641453,0.987085479 C63.5641453,0.442214295 63.121931,0 62.5770599,0 L9.25733448,0 C8.7124633,0 8.270249,0.442214295 8.270249,0.987085479 L8.270249,31.8065264 C8.270249,32.3513976 8.7124633,32.7936119 9.25733448,32.7936119 L9.25733448,32.7936119 Z M71.4595131,35.1297142 C71.1554907,34.7717312 70.7014314,34.5637851 70.2144692,34.5637851 L1.61860898,34.5637851 C1.13296293,34.5637851 0.678903608,34.7717312 0.37488128,35.1297142 C0.0708589522,35.4903294 -0.0568041031,35.9720271 0.0234788492,36.4524087 L0.634155733,40.070406 C0.781560497,40.9443057 1.59097059,41.6300011 2.47803141,41.6300011 L69.357679,41.6300011 C70.2434237,41.6300011 71.05415,40.9443057 71.2015547,40.070406 L71.8109155,36.4510926 C71.8911984,35.9720271 71.7635354,35.4903294 71.4595131,35.1297142 L71.4595131,35.1297142 Z M69.2681833,39.6558301 L2.56621104,39.6558301 L2.04108157,36.5379561 L69.7933128,36.5379561 L69.2681833,39.6558301 L69.2681833,39.6558301 Z" id="Fill-208" sketch:type="MSShapeGroup"></path>
                <path d="M51.4849587,7.09718798 C51.2961739,6.94580949 51.0208871,6.97386419 50.8689242,7.16323342 L38.493294,22.4863607 C38.4810201,22.5021414 38.4699151,22.5179222 38.4593946,22.5348719 C38.4558877,22.5407167 38.4523809,22.5471459 38.4482896,22.5541595 L35.0992596,26.7331411 C35.0016526,26.8529581 34.8672238,26.9254327 34.7205211,26.9371222 C34.5685582,26.9453048 34.4306225,26.897378 34.3184037,26.7962642 L24.7178511,18.0677452 C24.5395869,17.9058462 24.2619622,17.9181201 24.0983098,18.0975533 C23.9358263,18.276402 23.9486847,18.5540267 24.1281179,18.7165102 L33.7298395,27.4461981 C33.9963591,27.685832 34.3295087,27.8150005 34.6784391,27.8150005 C34.7146764,27.8150005 34.7509137,27.8138316 34.7877355,27.8109092 C35.17641,27.7811011 35.5282627,27.5946542 35.7813395,27.2837146 L39.173036,23.051546 C39.184141,23.0363497 39.1958305,23.0182311 39.206351,22.9989435 L51.5510041,7.71380694 C51.7029671,7.52560665 51.673159,7.24973542 51.4849587,7.09718798" id="Fill-141" stroke="#546979" stroke-width="0.75" sketch:type="MSShapeGroup"></path>
            </g>
        </g>
    </g>
</svg>