<?xml version="1.0" encoding="UTF-8" standalone="no"?>
<svg width="30px" height="27px" viewBox="0 0 30 27" version="1.1" xmlns="http://www.w3.org/2000/svg" xmlns:xlink="http://www.w3.org/1999/xlink" xmlns:sketch="http://www.bohemiancoding.com/sketch/ns">
    <!-- Generator: Sketch 3.4 (15575) - http://www.bohemiancoding.com/sketch -->
    <title>inventory</title>
    <desc>Created with Sketch.</desc>
    <defs></defs>
    <g id="Page-1" stroke="none" stroke-width="1" fill="none" fill-rule="evenodd" sketch:type="MSPage">
        <g id="Desktop-HD" sketch:type="MSArtboardGroup" transform="translate(-744.000000, -14.000000)" fill="#546979">
            <g id="inventory" sketch:type="MSLayerGroup" transform="translate(744.000000, 14.000000)">
                <path d="M14.3484615,18.5077896 C14.4607692,18.6200973 14.6084615,18.6754819 14.7553846,18.6754819 C14.9007692,18.6754819 15.0476923,18.6200973 15.1607692,18.5077896 L21.8869231,11.8477896 C22.1138462,11.6239434 22.1153846,11.2585588 21.8907692,11.032405 C21.6676923,10.8062511 21.3007692,10.8039434 21.0753846,11.0285588 L15.3261538,16.7208665 L15.3261538,0.999328036 C15.3261538,0.680097267 15.0676923,0.422404959 14.7492308,0.422404959 C14.43,0.422404959 14.1723077,0.680097267 14.1723077,0.999328036 L14.1723077,16.7085588 L8.43769231,11.0285588 C8.21230769,10.8039434 7.84692308,10.8062511 7.62153846,11.032405 C7.39692308,11.2585588 7.39923077,11.6239434 7.62615385,11.8477896 L14.3484615,18.5077896 L14.3484615,18.5077896 Z M28.9353846,13.8531742 C28.6176923,13.8531742 28.3592308,14.1116357 28.3592308,14.4300973 L28.3592308,25.7247127 L1.15384615,25.7247127 L1.15384615,14.4300973 C1.15384615,14.1116357 0.895384615,13.8531742 0.576923077,13.8531742 C0.258461538,13.8531742 0,14.1116357 0,14.4300973 L0,26.3016357 C0,26.6200973 0.258461538,26.8785588 0.576923077,26.8785588 L28.9353846,26.8785588 C29.2546154,26.8785588 29.5130769,26.6200973 29.5130769,26.3016357 L29.5130769,14.4300973 C29.5130769,14.1116357 29.2546154,13.8531742 28.9353846,13.8531742 L28.9353846,13.8531742 Z" id="Fill-109" sketch:type="MSShapeGroup"></path>
            </g>
        </g>
    </g>
</svg>