<?xml version="1.0" encoding="UTF-8" standalone="no"?>
<svg width="21px" height="30px" viewBox="0 0 21 30" version="1.1" xmlns="http://www.w3.org/2000/svg" xmlns:xlink="http://www.w3.org/1999/xlink" xmlns:sketch="http://www.bohemiancoding.com/sketch/ns">
    <!-- Generator: Sketch 3.3.3 (12072) - http://www.bohemiancoding.com/sketch -->
    <title>Fill 63</title>
    <desc>Created with Sketch.</desc>
    <defs></defs>
    <g id="Page-1" stroke="none" stroke-width="1" fill="none" fill-rule="evenodd" sketch:type="MSPage">
        <g id="Desktop-HD" sketch:type="MSArtboardGroup" transform="translate(-1143.000000, -24.000000)" stroke="#44B6FF" stroke-width="0.5" fill="#44B6FF">
            <path d="M1153.69415,24.3862729 C1148.34883,24.3862729 1144,29.0618481 1144,34.8097368 C1144,43.9268078 1152.99492,52.8802035 1153.37823,53.2568972 C1153.46608,53.3429471 1153.57981,53.3862729 1153.69415,53.3862729 C1153.80727,53.3862729 1153.9204,53.3441506 1154.00826,53.2593042 C1154.39157,52.8892297 1163.3895,44.0790498 1163.3895,34.8097368 C1163.3895,29.0618481 1159.04007,24.3862729 1153.69415,24.3862729 L1153.69415,24.3862729 Z M1153.69655,52.2904913 C1152.0923,50.6043958 1144.90262,42.6113885 1144.90262,34.8097368 C1144.90262,29.559493 1148.84647,25.2888936 1153.69415,25.2888936 C1158.54242,25.2888936 1162.48688,29.559493 1162.48688,34.8097368 C1162.48688,42.7389589 1155.30563,50.6236517 1153.69655,52.2904913 L1153.69655,52.2904913 Z M1153.69415,27.8517346 C1150.15046,27.8517346 1147.26749,30.7353069 1147.26749,34.2795976 C1147.26749,37.8238883 1150.15046,40.7074606 1153.69415,40.7074606 C1157.23844,40.7074606 1160.12141,37.8238883 1160.12141,34.2795976 C1160.12141,30.7353069 1157.23844,27.8517346 1153.69415,27.8517346 L1153.69415,27.8517346 Z M1153.69415,39.8048399 C1150.6481,39.8048399 1148.17011,37.3262434 1148.17011,34.2795976 C1148.17011,31.2335536 1150.6481,28.7543554 1153.69415,28.7543554 C1156.74019,28.7543554 1159.21879,31.2335536 1159.21879,34.2795976 C1159.21879,37.3262434 1156.74019,39.8048399 1153.69415,39.8048399 L1153.69415,39.8048399 Z" id="Fill-63" sketch:type="MSShapeGroup"></path>
        </g>
    </g>
</svg>