<?xml version="1.0" encoding="UTF-8" standalone="no"?>
<svg width="30px" height="30px" viewBox="0 0 30 30" version="1.1" xmlns="http://www.w3.org/2000/svg" xmlns:xlink="http://www.w3.org/1999/xlink" xmlns:sketch="http://www.bohemiancoding.com/sketch/ns">
    <!-- Generator: Sketch 3.3.3 (12072) - http://www.bohemiancoding.com/sketch -->
    <title>search</title>
    <desc>Created with Sketch.</desc>
    <defs></defs>
    <g id="Page-1" stroke="none" stroke-width="1" fill="none" fill-rule="evenodd" sketch:type="MSPage">
        <g id="Desktop-HD" sketch:type="MSArtboardGroup" transform="translate(-200.000000, -665.000000)" fill="#44B6FF">
            <path d="M212.622004,687.927786 C206.723608,687.927786 201.942063,683.2297 201.942063,677.425078 C201.942063,671.620457 206.723608,666.912993 212.622004,666.912993 C218.5204,666.912993 223.302883,671.620457 223.302883,677.425078 C223.302883,683.2297 218.5204,687.927786 212.622004,687.927786 L212.622004,687.927786 L212.622004,687.927786 Z M229.715161,693.366688 L221.970352,685.742848 C223.997749,683.539155 225.244008,680.632155 225.244008,677.425078 C225.244008,670.560809 219.593176,665 212.622004,665 C205.650832,665 200,670.560809 200,677.425078 C200,684.279971 205.650832,689.840779 212.622004,689.840779 C215.634031,689.840779 218.396618,688.799886 220.566552,687.065064 L228.342307,694.717036 C228.722092,695.092133 229.336313,695.092133 229.715161,694.717036 C230.094946,694.351317 230.094946,693.741785 229.715161,693.366688 L229.715161,693.366688 L229.715161,693.366688 Z" id="search" sketch:type="MSShapeGroup"></path>
        </g>
    </g>
</svg>