<?xml version="1.0" encoding="UTF-8" standalone="no"?>
<svg width="27px" height="27px" viewBox="0 0 27 27" version="1.1" xmlns="http://www.w3.org/2000/svg" xmlns:xlink="http://www.w3.org/1999/xlink" xmlns:sketch="http://www.bohemiancoding.com/sketch/ns">
    <!-- Generator: Sketch 3.4 (15575) - http://www.bohemiancoding.com/sketch -->
    <title>search-2-blue</title>
    <desc>Created with Sketch.</desc>
    <defs></defs>
    <g id="Page-1" stroke="none" stroke-width="1" fill="none" fill-rule="evenodd" sketch:type="MSPage">
        <g id="Desktop-HD" sketch:type="MSArtboardGroup" transform="translate(-706.000000, -12.000000)" stroke="#44B6FF" stroke-width="0.25" fill="#44B6FF">
            <path d="M731.870619,37.4066719 L722.993806,28.5298592 C724.53225,26.8783729 725.482517,24.671681 725.482517,22.2424358 C725.482517,17.1460844 721.336432,13 716.240081,13 C711.144907,13 707,17.1460844 707,22.2424358 C707,27.3376097 711.144907,31.4842829 716.240081,31.4842829 C718.589254,31.4842829 720.730004,30.5958363 722.362061,29.1468851 L731.246528,38.0313517 C731.332487,38.1173115 731.44553,38.1602913 731.558573,38.1602913 C731.671616,38.1602913 731.784659,38.1173115 731.870619,38.0313517 C732.043127,37.8588435 732.043127,37.5791801 731.870619,37.4066719 L731.870619,37.4066719 Z M716.240081,30.6011351 C711.632404,30.6011351 707.883148,26.8507009 707.883148,22.2424358 C707.883148,17.6329932 711.632404,13.8831478 716.240081,13.8831478 C720.848935,13.8831478 724.599369,17.6329932 724.599369,22.2424358 C724.599369,26.8507009 720.848935,30.6011351 716.240081,30.6011351 L716.240081,30.6011351 Z" id="search-2" sketch:type="MSShapeGroup"></path>
        </g>
    </g>
</svg>