<?xml version="1.0" encoding="UTF-8" standalone="no"?>
<svg width="30px" height="26px" viewBox="0 0 30 26" version="1.1" xmlns="http://www.w3.org/2000/svg" xmlns:xlink="http://www.w3.org/1999/xlink" xmlns:sketch="http://www.bohemiancoding.com/sketch/ns">
    <!-- Generator: Sketch 3.4 (15575) - http://www.bohemiancoding.com/sketch -->
    <title>shipping</title>
    <desc>Created with Sketch.</desc>
    <defs></defs>
    <g id="Page-1" stroke="none" stroke-width="1" fill="none" fill-rule="evenodd" sketch:type="MSPage">
        <g id="Desktop-HD" sketch:type="MSArtboardGroup" transform="translate(-777.000000, -15.000000)" fill="#546979">
            <path d="M806.974765,22.1540099 C806.968457,22.1137923 806.974765,22.0727861 806.960571,22.0341456 L804.378756,15.3769419 C804.289646,15.1498305 804.071209,15 803.827537,15 L780.173251,15 C779.928003,15 779.710354,15.1498305 779.621244,15.3769419 L777.040218,22.0341456 C777.025235,22.0727861 777.031543,22.1137923 777.025235,22.1540099 C777.015772,22.1942276 777,22.2328681 777,22.2754515 L777,40.2945351 C777,40.6210078 777.264963,40.8859711 777.591436,40.8859711 L806.408564,40.8859711 C806.735037,40.8859711 807,40.6210078 807,40.2945351 L807,22.2754515 C807,22.2328681 806.98344,22.1942276 806.974765,22.1540099 L806.974765,22.1540099 Z M793.788108,16.182872 L795.276161,22.2439082 L795.276161,29.0824856 L792.266935,27.5762952 C792.100544,27.4934942 791.904976,27.4934942 791.73622,27.5762952 L788.725416,29.0824856 L788.725416,22.208422 L790.210315,16.182872 L793.788108,16.182872 L793.788108,16.182872 Z M805.817128,39.7030991 L778.182083,39.7030991 L778.182083,22.8668875 L786.33838,22.8668875 C786.664853,22.8668875 786.929816,22.6019241 786.929816,22.2754515 C786.929816,22.2715086 786.926662,22.2667771 786.926662,22.2620456 C786.926662,22.2573141 786.929816,22.2525826 786.929816,22.2478511 C786.929816,21.9213784 786.664853,21.6564151 786.33838,21.6564151 L778.455721,21.6564151 L780.577794,16.182872 L788.990379,16.182872 L787.559893,21.9955051 C787.547275,22.0412428 787.542544,22.0893463 787.542544,22.1374497 L787.542544,30.0398234 C787.542544,30.2448545 787.649002,30.4349026 787.823279,30.5429383 C787.997555,30.6509739 788.213627,30.6596483 788.398943,30.5689614 L792.001971,28.7670531 L795.602634,30.5689614 C795.686223,30.6107562 795.77691,30.6312594 795.867597,30.6312594 C795.975633,30.6312594 796.08288,30.6020819 796.178298,30.5429383 C796.351786,30.4349026 796.459033,30.2448545 796.459033,30.0398234 L796.459033,22.1721473 C796.459033,22.1248324 796.453513,22.0775175 796.442473,22.0317798 L795.006466,16.182872 L803.422206,16.182872 L805.545067,21.6564151 L797.663197,21.6564151 C797.336724,21.6564151 797.072549,21.9213784 797.072549,22.2478511 C797.072549,22.2525826 797.074127,22.2573141 797.074915,22.2620456 C797.074127,22.2667771 797.072549,22.2715086 797.072549,22.2754515 C797.072549,22.6019241 797.336724,22.8668875 797.663197,22.8668875 L805.817128,22.8668875 L805.817128,39.7030991 L805.817128,39.7030991 Z" id="shipping" sketch:type="MSShapeGroup"></path>
        </g>
    </g>
</svg>