<?xml version="1.0" encoding="UTF-8" standalone="no"?>
<svg width="57px" height="48px" viewBox="0 0 57 48" version="1.1" xmlns="http://www.w3.org/2000/svg" xmlns:xlink="http://www.w3.org/1999/xlink" xmlns:sketch="http://www.bohemiancoding.com/sketch/ns">
    <!-- Generator: Sketch 3.3.3 (12072) - http://www.bohemiancoding.com/sketch -->
    <title>sold</title>
    <desc>Created with Sketch.</desc>
    <defs></defs>
    <g id="Page-1" stroke="none" stroke-width="1" fill="none" fill-rule="evenodd" sketch:type="MSPage">
        <g id="Desktop-HD" sketch:type="MSArtboardGroup" transform="translate(-910.000000, -499.000000)" fill="#546979">
            <g id="sold" sketch:type="MSLayerGroup" transform="translate(910.000000, 499.000000)">
                <path d="M37.6078039,30.3743223 L24.344304,43.6340315 C21.4368721,46.5212467 17.2216643,46.8295532 14.7375221,44.3302484 L3.5651999,33.3285057 C1.06210442,30.8064569 1.40199977,26.391608 4.32206724,23.4867032 L20.6231449,7.16288159 C23.0832796,6.4022236 36.7132095,2.18954296 37.3197142,1.97473921 C37.4890301,1.91535229 38.0803722,1.74856349 38.5731572,2.24261212 C39.2428395,2.91734861 45.0463315,8.71704991 45.6806343,9.35135276 C46.0217932,9.6912481 46.0938157,10.0058724 45.9396624,10.4670687 C45.7817184,10.9257379 43.9571501,16.6508897 42.3486491,21.7025685 L41.5551387,24.1905014 C41.3959313,24.6883406 41.6713855,25.2215594 42.1704883,25.3807668 C42.6683276,25.5336566 43.2015463,25.2632566 43.3607538,24.7654173 L44.1542641,22.2774844 C45.599767,17.7375439 47.5810158,11.5221342 47.7339055,11.0773641 C48.1218158,9.92247802 47.8741597,8.86235833 47.0212624,8.01072463 C46.3856961,7.37642179 40.5872583,1.5817747 39.917576,0.905774654 C39.0596246,0.0478231986 37.8162899,-0.22384037 36.67783,0.190604516 C36.2330599,0.348548451 26.3647228,3.40381593 19.839743,5.4204441 C19.6919075,5.46593195 19.557971,5.5480628 19.448042,5.65672822 L2.98270267,22.1448115 C-0.675278867,25.7838398 -1.01770132,31.4003261 2.22709889,34.6716609 L13.3994211,45.6734036 C14.895466,47.1782934 16.8564979,47.9199982 18.89587,47.9199982 C21.2536571,47.9199982 23.7175825,46.9281103 25.6811415,44.9771868 L38.948432,31.7149504 C39.3186526,31.3447298 39.3186526,30.7445429 38.948432,30.3743223 C38.5782115,30.0041017 37.9780245,30.0041017 37.6078039,30.3743223 L37.6078039,30.3743223 Z M35.6063384,15.9016036 C35.0908094,15.9913158 34.7458598,16.4828373 34.835572,16.9983663 C34.9164393,17.4582991 35.3169851,17.7817682 35.768073,17.7817682 C35.8224057,17.7817682 35.8780019,17.776714 35.9335982,17.7678692 C38.4025778,17.3357346 40.1942938,15.2003326 40.1942938,12.6934464 C40.1942938,9.85045559 37.8819946,7.53815638 35.0402673,7.53815638 C32.1960129,7.53815638 29.8824502,9.85045559 29.8824502,12.6934464 C29.8824502,13.7270315 30.1882296,14.7265008 30.7656726,15.5831887 C31.0588166,16.0165868 31.6488951,16.1290429 32.0810297,15.8384261 C32.5144279,15.5452821 32.6294111,14.9564671 32.3362671,14.5218054 C31.9711008,13.9822689 31.7777774,13.3492296 31.7777774,12.6934464 C31.7777774,10.8954127 33.24097,9.4334836 35.0402673,9.4334836 C36.8370375,9.4334836 38.2989666,10.8954127 38.2989666,12.6934464 C38.2989666,14.27794 37.1668244,15.627413 35.6063384,15.9016036 L35.6063384,15.9016036 Z M51.0671543,10.9131024 C50.6602907,10.5820519 50.0638944,10.6452295 49.7341075,11.0533566 C49.4055841,11.4602202 49.4687617,12.0566165 49.8756252,12.3864034 C54.4572629,16.0936635 55.7208144,22.1637648 52.6920815,25.9152491 C51.4108403,27.5022698 49.4776065,28.4941577 47.2499653,28.710225 C44.3981296,28.9894699 41.3491798,28.0001091 38.8764096,26.0011706 C34.2909813,22.2964377 33.0249027,16.2288635 36.0536356,12.4761156 C36.3834225,12.069252 36.3189814,11.4728557 35.9121178,11.1430688 C35.5052542,10.8170725 34.9075944,10.8789865 34.579071,11.2871136 C30.8945549,15.8510616 32.2869886,23.1139555 37.6848806,27.4744717 C40.2208284,29.5239522 43.3051575,30.6510401 46.3010381,30.6510401 C46.6801035,30.6510401 47.0579054,30.6320868 47.4331802,30.5954438 C50.1700327,30.3313615 52.5619357,29.0918175 54.1666461,27.1055146 C57.8511622,22.5428302 56.4612556,15.2786728 51.0671543,10.9131024 L51.0671543,10.9131024 Z" id="Fill-53" sketch:type="MSShapeGroup"></path>
            </g>
        </g>
    </g>
</svg>