<?xml version="1.0" encoding="UTF-8" standalone="no"?>
<svg width="28px" height="30px" viewBox="0 0 28 30" version="1.1" xmlns="http://www.w3.org/2000/svg" xmlns:xlink="http://www.w3.org/1999/xlink" xmlns:sketch="http://www.bohemiancoding.com/sketch/ns">
    <!-- Generator: Sketch 3.4 (15575) - http://www.bohemiancoding.com/sketch -->
    <title>tracking-blue</title>
    <desc>Created with Sketch.</desc>
    <defs></defs>
    <g id="Page-1" stroke="none" stroke-width="1" fill="none" fill-rule="evenodd" sketch:type="MSPage">
        <g id="Desktop-HD" sketch:type="MSArtboardGroup" transform="translate(-837.000000, -8.000000)">
            <g id="tracking" sketch:type="MSLayerGroup" transform="translate(838.000000, 8.000000)">
                <path d="M26.2007275,6.92592366 L20.2107359,3.90178029 L19.5701441,3.58017441 C19.4325938,3.51270922 19.2708083,3.51205422 19.1326029,3.58082941 L13.2343116,6.55715764 L8.01656718,3.92143035 L7.3360203,3.58017441 C7.19781491,3.51270922 7.03668447,3.51205422 6.89847909,3.58082941 L0.269860747,6.92592366 C0.10480029,7.00976389 0,7.17875436 0,7.36411987 L0,28.9975197 C0,29.1684752 0.0884252446,29.3263306 0.234490649,29.4154109 C0.312435864,29.464536 0.402171113,29.4887711 0.491251359,29.4887711 C0.567231569,29.4887711 0.64321178,29.471086 0.713296973,29.4357159 L7.11790469,26.199352 L13.012266,29.1783002 C13.1517814,29.2483854 13.3161868,29.2496954 13.4563572,29.1783002 L19.3520285,26.199352 L25.7579463,29.4363709 C25.9118717,29.5130062 26.0919972,29.5058011 26.2367526,29.4154109 C26.382163,29.3263306 26.4705882,29.1684752 26.4705882,28.9975197 L26.4705882,7.36411987 C26.4705882,7.17875436 26.3664429,7.00976389 26.2007275,6.92592366 L26.2007275,6.92592366 Z M6.62992834,25.3458846 L0.982502718,28.1984175 L0.982502718,7.66607571 L6.62992834,4.81354282 L6.62992834,25.3458846 L6.62992834,25.3458846 Z M12.7430603,27.9410018 L7.61243106,25.3491596 L7.61243106,4.81943783 L12.7430603,7.40997 L12.7430603,27.9410018 L12.7430603,27.9410018 Z M18.8863223,25.3334396 L13.725563,27.9410018 L13.725563,7.409315 L18.8863223,4.80175278 L18.8863223,25.3334396 L18.8863223,25.3334396 Z M25.4880855,28.1990725 L19.868825,25.3596397 L19.868825,4.82991786 L25.4880855,7.66673071 L25.4880855,28.1990725 L25.4880855,28.1990725 Z" id="Fill-61" stroke="#44B6FF" stroke-width="0.25" fill="#44B6FF" sketch:type="MSShapeGroup"></path>
                <path d="M11.2418067,8.94768908 C11.2418067,7.8737395 12.1153361,7.00021008 13.1880252,7.00021008 C14.2619748,7.00021008 15.1348739,7.8737395 15.1348739,8.94768908 C15.1348739,10.0197479 14.2619748,10.8920168 13.1880252,10.8920168 C12.1153361,10.8920168 11.2418067,10.0197479 11.2418067,8.94768908 L11.2418067,8.94768908 Z" id="Path" stroke="#979797" fill="#D8D8D8" sketch:type="MSShapeGroup"></path>
                <path d="M13.1892855,23.7319544 C14.84246,23.7319544 22.2598735,14.4203644 22.2598735,9.81739178 C22.2598735,4.81412477 18.1900764,0.744327731 13.1892855,0.744327731 C8.18849452,0.744327731 4.11869748,4.81412477 4.11869748,9.81739178 C4.11869748,14.4203644 11.5369363,23.7319544 13.1892855,23.7319544 L13.1892855,23.7319544 Z" id="Path-Copy" fill="#FFFFFF" sketch:type="MSShapeGroup"></path>
                <path d="M13.1880252,20.4409664 C14.4504202,20.4409664 20.1144958,13.3304622 20.1144958,9.81554622 C20.1144958,5.99495798 17.0067227,2.88718487 13.1880252,2.88718487 C9.36932773,2.88718487 6.26155462,5.99495798 6.26155462,9.81554622 C6.26155462,13.3304622 11.9262605,20.4409664 13.1880252,20.4409664 L13.1880252,20.4409664 Z" id="Path" stroke="#44B6FF" stroke-width="1.25" fill="#FFFFFF" sketch:type="MSShapeGroup"></path>
                <path d="M13.1880252,3.83256303 C16.4861345,3.83256303 19.1691176,6.51617647 19.1691176,9.81554622 C19.1691176,12.9113445 14.2985294,18.7153361 13.1880252,19.4527311 C12.0768908,18.7153361 7.20693277,12.9113445 7.20693277,9.81554622 C7.20693277,6.51617647 9.88991597,3.83256303 13.1880252,3.83256303 L13.1880252,3.83256303 Z" id="Path" sketch:type="MSShapeGroup"></path>
                <path d="M16.9542871,9.82200982 C16.9542871,7.74390646 15.2643919,6.05483193 13.18793,6.05483193 C11.1114681,6.05483193 9.42239355,7.74390646 9.42239355,9.82200982 C9.42239355,11.8968302 11.1114681,13.585084 13.18793,13.585084 C15.2643919,13.585084 16.9542871,11.8968302 16.9542871,9.82200982 L16.9542871,9.82200982 Z" id="Path" stroke="#44B6FF" stroke-width="1.25" sketch:type="MSShapeGroup"></path>
            </g>
        </g>
    </g>
</svg>