<?xml version="1.0" encoding="UTF-8" standalone="no"?>
<svg width="32px" height="31px" viewBox="0 0 32 31" version="1.1" xmlns="http://www.w3.org/2000/svg" xmlns:xlink="http://www.w3.org/1999/xlink" xmlns:sketch="http://www.bohemiancoding.com/sketch/ns">
    <!-- Generator: Sketch 3.4 (15575) - http://www.bohemiancoding.com/sketch -->
    <title>tracking</title>
    <desc>Created with Sketch.</desc>
    <defs></defs>
    <g id="Page-1" stroke="none" stroke-width="1" fill="none" fill-rule="evenodd" sketch:type="MSPage">
        <g id="Desktop-HD" sketch:type="MSArtboardGroup" transform="translate(-837.000000, -11.000000)">
            <g id="tracking" sketch:type="MSLayerGroup" transform="translate(838.000000, 11.000000)">
                <path d="M29.6941578,4.84938015 L22.9055007,1.42201767 L22.1794967,1.05753099 C22.0236063,0.981070448 21.8402494,0.980328112 21.6836167,1.05827333 L14.9988865,4.43144533 L9.0854428,1.44428773 L8.31415634,1.05753099 C8.15752357,0.981070448 7.97490906,0.980328112 7.8182763,1.05827333 L0.305842179,4.84938015 C0.118773662,4.94439908 0,5.13592161 0,5.34600252 L0,29.8638557 C0,30.0576052 0.100215277,30.2365081 0.265756069,30.3374657 C0.35409398,30.3931408 0.455793928,30.4206072 0.55675154,30.4206072 C0.642862445,30.4206072 0.72897335,30.4005642 0.808403237,30.3604781 L8.06695865,26.6925989 L14.7472348,30.0687403 C14.9053522,30.1481701 15.0916784,30.1496548 15.2505382,30.0687403 L21.932299,26.6925989 L29.1923391,30.3612204 C29.3667879,30.4480736 29.5709301,30.439908 29.7349863,30.3374657 C29.8997847,30.2365081 30,30.0576052 30,29.8638557 L30,5.34600252 C30,5.13592161 29.8819687,4.94439908 29.6941578,4.84938015 L29.6941578,4.84938015 Z M7.51391879,25.7253359 L1.11350308,28.9582065 L1.11350308,5.68821914 L7.51391879,2.45534853 L7.51391879,25.7253359 L7.51391879,25.7253359 Z M14.442135,28.6664687 L8.62742187,25.7290476 L8.62742187,2.46202954 L14.442135,5.397966 L14.442135,28.6664687 L14.442135,28.6664687 Z M21.4044986,25.7112315 L15.555638,28.6664687 L15.555638,5.39722367 L21.4044986,2.44198649 L21.4044986,25.7112315 L21.4044986,25.7112315 Z M28.8864969,28.9589489 L22.5180016,25.7409249 L22.5180016,2.47390691 L28.8864969,5.68896147 L28.8864969,28.9589489 L28.8864969,28.9589489 Z" id="Fill-61" stroke="#546979" stroke-width="0.25" fill="#546979" sketch:type="MSShapeGroup"></path>
                <path d="M12.7407143,10.1407143 C12.7407143,8.92357143 13.7307143,7.93357143 14.9464286,7.93357143 C16.1635714,7.93357143 17.1528571,8.92357143 17.1528571,10.1407143 C17.1528571,11.3557143 16.1635714,12.3442857 14.9464286,12.3442857 C13.7307143,12.3442857 12.7407143,11.3557143 12.7407143,10.1407143 L12.7407143,10.1407143 Z" id="Path" stroke="#979797" fill="#D8D8D8" sketch:type="MSShapeGroup"></path>
                <path d="M14.9478569,26.896215 C16.8214546,26.896215 25.2278566,16.3430797 25.2278566,11.1263773 C25.2278566,5.45600807 20.61542,0.843571429 14.9478569,0.843571429 C9.28029378,0.843571429 4.66785714,5.45600807 4.66785714,11.1263773 C4.66785714,16.3430797 13.0751945,26.896215 14.9478569,26.896215 L14.9478569,26.896215 Z" id="Path-Copy" fill="#FFFFFF" sketch:type="MSShapeGroup"></path>
                <path d="M14.9464286,23.1664286 C16.3771429,23.1664286 22.7964286,15.1078571 22.7964286,11.1242857 C22.7964286,6.79428571 19.2742857,3.27214286 14.9464286,3.27214286 C10.6185714,3.27214286 7.09642857,6.79428571 7.09642857,11.1242857 C7.09642857,15.1078571 13.5164286,23.1664286 14.9464286,23.1664286 L14.9464286,23.1664286 Z" id="Path" stroke="#546979" stroke-width="1.25" fill="#FFFFFF" sketch:type="MSShapeGroup"></path>
                <path d="M14.9464286,4.34357143 C18.6842857,4.34357143 21.725,7.385 21.725,11.1242857 C21.725,14.6328571 16.205,21.2107143 14.9464286,22.0464286 C13.6871429,21.2107143 8.16785714,14.6328571 8.16785714,11.1242857 C8.16785714,7.385 11.2085714,4.34357143 14.9464286,4.34357143 L14.9464286,4.34357143 Z" id="Path" sketch:type="MSShapeGroup"></path>
                <path d="M19.2148587,11.1316111 C19.2148587,8.77642733 17.2996441,6.86214286 14.9463206,6.86214286 C12.5929972,6.86214286 10.6787127,8.77642733 10.6787127,11.1316111 C10.6787127,13.4830743 12.5929972,15.3964286 14.9463206,15.3964286 C17.2996441,15.3964286 19.2148587,13.4830743 19.2148587,11.1316111 L19.2148587,11.1316111 Z" id="Path" stroke="#546979" stroke-width="1.25" sketch:type="MSShapeGroup"></path>
            </g>
        </g>
    </g>
</svg>