<?xml version="1.0" encoding="UTF-8" standalone="no"?>
<svg width="18px" height="22px" viewBox="0 0 18 22" version="1.1" xmlns="http://www.w3.org/2000/svg" xmlns:xlink="http://www.w3.org/1999/xlink" xmlns:sketch="http://www.bohemiancoding.com/sketch/ns">
    <!-- Generator: Sketch 3.4 (15575) - http://www.bohemiancoding.com/sketch -->
    <title>trash-red</title>
    <desc>Created with Sketch.</desc>
    <defs></defs>
    <g id="Page-1" stroke="none" stroke-width="1" fill="none" fill-rule="evenodd" sketch:type="MSPage">
        <g id="Desktop-HD" sketch:type="MSArtboardGroup" transform="translate(-662.000000, -25.000000)" stroke="#FF0025" stroke-width="0.5" fill="#FF0025">
            <path d="M678.658408,28.7356615 L674.599381,28.7356615 L674.599381,27.2422202 C674.599381,26.5859076 674.065586,26.0521128 673.409729,26.0521128 L668.202041,26.0521128 C667.547551,26.0521128 667.014211,26.5859076 667.014211,27.2422202 L667.014211,28.7356615 L662.613592,28.7356615 C662.424578,28.7356615 662.272,28.8886948 662.272,29.0772538 C662.272,29.2658127 662.424578,29.418846 662.613592,29.418846 L663.846513,29.418846 L664.356168,43.7479575 C664.356168,45.1070392 665.461105,46.2128872 666.818821,46.2128872 L674.453635,46.2128872 C675.810895,46.2128872 676.915832,45.1070392 676.915832,43.7597994 L677.425032,29.418846 L678.658408,29.418846 C678.846967,29.418846 679,29.2658127 679,29.0772538 C679,28.8886948 678.846967,28.7356615 678.658408,28.7356615 L678.658408,28.7356615 Z M667.697396,27.2422202 C667.697396,26.96257 667.924213,26.7352973 668.202041,26.7352973 L673.409729,26.7352973 C673.688468,26.7352973 673.916196,26.96257 673.916196,27.2422202 L673.916196,28.7356615 L667.697396,28.7356615 L667.697396,27.2422202 L667.697396,27.2422202 Z M676.232647,43.7479575 C676.232647,44.7303768 675.434688,45.5297027 674.453635,45.5297027 L666.818821,45.5297027 C665.837768,45.5297027 665.039353,44.7303768 665.039353,43.7352047 L664.530152,29.418846 L676.741392,29.418846 L676.232647,43.7479575 L676.232647,43.7479575 Z M673.273092,41.2342941 C673.461651,41.2342941 673.614684,41.0812607 673.614684,40.8927018 L673.614684,34.0640451 C673.614684,33.8754862 673.461651,33.7224528 673.273092,33.7224528 C673.084533,33.7224528 672.9315,33.8754862 672.9315,34.0640451 L672.9315,40.8927018 C672.9315,41.0812607 673.084533,41.2342941 673.273092,41.2342941 L673.273092,41.2342941 Z M668.023047,41.2342941 C668.211606,41.2342941 668.364639,41.0812607 668.364639,40.8927018 L668.364639,34.0640451 C668.364639,33.8754862 668.211606,33.7224528 668.023047,33.7224528 C667.834488,33.7224528 667.681455,33.8754862 667.681455,34.0640451 L667.681455,40.8927018 C667.681455,41.0812607 667.834488,41.2342941 668.023047,41.2342941 L668.023047,41.2342941 Z M670.627346,42.7974202 C670.815905,42.7974202 670.968939,42.6443868 670.968939,42.4558279 L670.968939,32.5013744 C670.968939,32.3123601 670.815905,32.1597822 670.627346,32.1597822 C670.438787,32.1597822 670.285754,32.3123601 670.285754,32.5013744 L670.285754,42.4558279 C670.285754,42.6443868 670.438787,42.7974202 670.627346,42.7974202 L670.627346,42.7974202 Z" id="trash-red" sketch:type="MSShapeGroup"></path>
        </g>
    </g>
</svg>