<?xml version="1.0" encoding="UTF-8" standalone="no"?>
<svg width="18px" height="22px" viewBox="0 0 18 22" version="1.1" xmlns="http://www.w3.org/2000/svg" xmlns:xlink="http://www.w3.org/1999/xlink" xmlns:sketch="http://www.bohemiancoding.com/sketch/ns">
    <!-- Generator: Sketch 3.4 (15575) - http://www.bohemiancoding.com/sketch -->
    <title>trash</title>
    <desc>Created with Sketch.</desc>
    <defs></defs>
    <g id="Page-1" stroke="none" stroke-width="1" fill="none" fill-rule="evenodd" sketch:type="MSPage">
        <g id="Desktop-HD" sketch:type="MSArtboardGroup" transform="translate(-638.000000, -25.000000)" stroke="#546979" stroke-width="0.5" fill="#546979">
            <path d="M654.930408,28.6835487 L650.871381,28.6835487 L650.871381,27.1901074 C650.871381,26.5337948 650.337586,26 649.681729,26 L644.474041,26 C643.819551,26 643.286211,26.5337948 643.286211,27.1901074 L643.286211,28.6835487 L638.885592,28.6835487 C638.696578,28.6835487 638.544,28.836582 638.544,29.0251409 C638.544,29.2136998 638.696578,29.3667332 638.885592,29.3667332 L640.118513,29.3667332 L640.628168,43.6958447 C640.628168,45.0549264 641.733105,46.1607743 643.090821,46.1607743 L650.725635,46.1607743 C652.082895,46.1607743 653.187832,45.0549264 653.187832,43.7076866 L653.697032,29.3667332 L654.930408,29.3667332 C655.118967,29.3667332 655.272,29.2136998 655.272,29.0251409 C655.272,28.836582 655.118967,28.6835487 654.930408,28.6835487 L654.930408,28.6835487 Z M643.969396,27.1901074 C643.969396,26.9104572 644.196213,26.6831845 644.474041,26.6831845 L649.681729,26.6831845 C649.960468,26.6831845 650.188196,26.9104572 650.188196,27.1901074 L650.188196,28.6835487 L643.969396,28.6835487 L643.969396,27.1901074 L643.969396,27.1901074 Z M652.504647,43.6958447 C652.504647,44.678264 651.706688,45.4775898 650.725635,45.4775898 L643.090821,45.4775898 C642.109768,45.4775898 641.311353,44.678264 641.311353,43.6830919 L640.802152,29.3667332 L653.013392,29.3667332 L652.504647,43.6958447 L652.504647,43.6958447 Z M649.545092,41.1821812 C649.733651,41.1821812 649.886684,41.0291479 649.886684,40.840589 L649.886684,34.0119323 C649.886684,33.8233733 649.733651,33.67034 649.545092,33.67034 C649.356533,33.67034 649.2035,33.8233733 649.2035,34.0119323 L649.2035,40.840589 C649.2035,41.0291479 649.356533,41.1821812 649.545092,41.1821812 L649.545092,41.1821812 Z M644.295047,41.1821812 C644.483606,41.1821812 644.636639,41.0291479 644.636639,40.840589 L644.636639,34.0119323 C644.636639,33.8233733 644.483606,33.67034 644.295047,33.67034 C644.106488,33.67034 643.953455,33.8233733 643.953455,34.0119323 L643.953455,40.840589 C643.953455,41.0291479 644.106488,41.1821812 644.295047,41.1821812 L644.295047,41.1821812 Z M646.899346,42.7453073 C647.087905,42.7453073 647.240939,42.592274 647.240939,42.4037151 L647.240939,32.4492616 C647.240939,32.2602472 647.087905,32.1076694 646.899346,32.1076694 C646.710787,32.1076694 646.557754,32.2602472 646.557754,32.4492616 L646.557754,42.4037151 C646.557754,42.592274 646.710787,42.7453073 646.899346,42.7453073 L646.899346,42.7453073 Z" id="trash" sketch:type="MSShapeGroup"></path>
        </g>
    </g>
</svg>